<mxfile host="app.diagrams.net" agent="Mozilla/5.0 (Windows NT 10.0; Win64; x64) AppleWebKit/537.36 (KHTML, like Gecko) Chrome/138.0.0.0 Safari/537.36" version="28.0.7">
  <diagram name="Page-1" id="929967ad-93f9-6ef4-fab6-5d389245f69c">
    <mxGraphModel dx="927" dy="871" grid="1" gridSize="10" guides="1" tooltips="1" connect="1" arrows="1" fold="1" page="1" pageScale="1.5" pageWidth="1169" pageHeight="826" background="none" math="0" shadow="0">
      <root>
        <mxCell id="0" style=";html=1;" />
        <mxCell id="1" style=";html=1;" parent="0" />
        <mxCell id="1672d66443f91eb5-23" value="Title" style="text;strokeColor=none;fillColor=none;html=1;fontSize=24;fontStyle=1;verticalAlign=middle;align=center;" parent="1" vertex="1">
          <mxGeometry x="120" y="40" width="1510" height="40" as="geometry" />
        </mxCell>
        <mxCell id="QYrF_I04WvRuAuoNcoLG-1" value="&lt;p style=&quot;margin:0px;margin-top:4px;margin-left:10px;text-align:left;&quot;&gt;&lt;b&gt;par&lt;/b&gt;   Block1&lt;/p&gt;" style="html=1;shape=mxgraph.sysml.package;labelX=120;align=left;spacingLeft=10;overflow=fill;whiteSpace=wrap;recursiveResize=0;" vertex="1" parent="1">
          <mxGeometry x="750" y="260" width="300" height="170" as="geometry" />
        </mxCell>
        <mxCell id="QYrF_I04WvRuAuoNcoLG-2" value="C1: Constraint" style="strokeColor=inherit;fillColor=inherit;gradientColor=inherit;html=1;shape=mxgraph.sysml.paramDgm;fontStyle=1;whiteSpace=wrap;align=center;" vertex="1" parent="QYrF_I04WvRuAuoNcoLG-1">
          <mxGeometry x="130" y="50" width="150" height="100" as="geometry" />
        </mxCell>
        <mxCell id="QYrF_I04WvRuAuoNcoLG-3" value="x:" style="html=1;resizable=0;align=left;verticalAlign=middle;labelPosition=left;verticalLabelPosition=middle;labelBackgroundColor=none;fontSize=10;spacingLeft=22;fontStyle=1;" connectable="0" vertex="1" parent="QYrF_I04WvRuAuoNcoLG-2">
          <mxGeometry y="25" as="geometry" />
        </mxCell>
        <mxCell id="QYrF_I04WvRuAuoNcoLG-4" value="y:" style="html=1;resizable=0;align=left;verticalAlign=middle;labelPosition=left;verticalLabelPosition=middle;labelBackgroundColor=none;fontSize=10;spacingLeft=22;fontStyle=1;" connectable="0" vertex="1" parent="QYrF_I04WvRuAuoNcoLG-2">
          <mxGeometry y="75" as="geometry" />
        </mxCell>
        <mxCell id="QYrF_I04WvRuAuoNcoLG-5" value="length: Real" style="strokeColor=inherit;fillColor=inherit;gradientColor=inherit;shape=rect;html=1;fontSize=10;verticalLabelPosition=top;verticalAlign=bottom;" vertex="1" parent="QYrF_I04WvRuAuoNcoLG-1">
          <mxGeometry x="30" y="65" width="20" height="20" as="geometry" />
        </mxCell>
        <mxCell id="QYrF_I04WvRuAuoNcoLG-6" value="width: Real" style="strokeColor=inherit;fillColor=inherit;gradientColor=inherit;shape=rect;html=1;fontSize=10;verticalLabelPosition=top;verticalAlign=bottom;" vertex="1" parent="QYrF_I04WvRuAuoNcoLG-1">
          <mxGeometry x="30" y="115" width="20" height="20" as="geometry" />
        </mxCell>
        <mxCell id="QYrF_I04WvRuAuoNcoLG-7" value="" style="strokeColor=inherit;fillColor=inherit;gradientColor=inherit;endArrow=none;html=1;edgeStyle=none;exitY=0.25;exitX=0;entryY=0.5;entryX=1;rounded=0;" edge="1" parent="QYrF_I04WvRuAuoNcoLG-1" source="QYrF_I04WvRuAuoNcoLG-2" target="QYrF_I04WvRuAuoNcoLG-5">
          <mxGeometry x="1" relative="1" as="geometry" />
        </mxCell>
        <mxCell id="QYrF_I04WvRuAuoNcoLG-8" value="" style="strokeColor=inherit;fillColor=inherit;gradientColor=inherit;endArrow=none;html=1;edgeStyle=none;exitY=0.75;exitX=0;entryY=0.5;entryX=1;rounded=0;" edge="1" parent="QYrF_I04WvRuAuoNcoLG-1" source="QYrF_I04WvRuAuoNcoLG-2" target="QYrF_I04WvRuAuoNcoLG-6">
          <mxGeometry x="1" relative="1" as="geometry" />
        </mxCell>
      </root>
    </mxGraphModel>
  </diagram>
</mxfile>
